<svg xmlns="http://www.w3.org/2000/svg" width="28" height="28" viewBox="0 0 24 24" fill="#ffffff">
  <path d="M12 2.2c3.2 0 3.6 0 4.9.1 1.2.1 1.8.2 2.2.4.6.2 1 .5 1.5 1s.8.9 1 1.5c.2.4.3 1 .4 2.2.1 1.3.1 1.7.1 4.9s0 3.6-.1 4.9c-.1 1.2-.2 1.8-.4 2.2-.2.6-.5 1-1 1.5s-.9.8-1.5 1c-.4.2-1 .3-2.2.4-1.3.1-1.7.1-4.9.1s-3.6 0-4.9-.1c-1.2-.1-1.8-.2-2.2-.4-.6-.2-1-.5-1.5-1s-.8-.9-1-1.5c-.2-.4-.3-1-.4-2.2C2.2 15.6 2.2 15.2 2.2 12s0-3.6.1-4.9c.1-1.2.2-1.8.4-2.2.2-.6.5-1 1-1.5s.9-.8 1.5-1c.4-.2 1-.3 2.2-.4C8.4 2.2 8.8 2.2 12 2.2m0-2.2C8.7 0 8.3 0 7 .1 5.7.2 4.7.5 3.9.9 3.1 1.3 2.4 1.9 1.9 2.4 1.4 2.9.8 3.6.4 4.4.1 5.2-.2 6.2-.1 7.5 0 8.7 0 9.1 0 12s0 3.3.1 4.5c.1 1.3.3 2.3.7 3.1.4.8 1 1.5 1.5 2 .5.5 1.2 1.1 2 1.5.8.4 1.8.6 3.1.7 1.2.1 1.6.1 4.5.1s3.3 0 4.5-.1c1.3-.1 2.3-.3 3.1-.7.8-.4 1.5-1 2-1.5.5-.5 1.1-1.2 1.5-2 .4-.8.6-1.8.7-3.1.1-1.2.1-1.6.1-4.5s0-3.3-.1-4.5c-.1-1.3-.3-2.3-.7-3.1-.4-.8-1-1.5-1.5-2-.5-.5-1.2-1.1-2-1.5C19.8.5 18.8.2 17.5.1 16.3 0 15.9 0 12 0z"/>
  <path d="M12 5.8a6.2 6.2 0 1 0 0 12.4 6.2 6.2 0 0 0 0-12.4zm0 10.2a4 4 0 1 1 0-8 4 4 0 0 1 0 8zM18.4 4.6a1.4 1.4 0 1 1-2.8 0 1.4 1.4 0 0 1 2.8 0z"/>
</svg>