<svg xmlns="http://www.w3.org/2000/svg" width="28" height="28" viewBox="0 0 24 24" fill="#ffffff">
  <path d="M20.52 3.48A11.89 11.89 0 0 0 12 0a11.89 11.89 0 0 0-8.52 3.48A11.89 11.89 0 0 0 0 12c0 2.11.55 4.17 1.6 5.98L0 24l6.28-1.62A11.87 11.87 0 0 0 12 24a11.89 11.89 0 0 0 8.52-3.48A11.89 11.89 0 0 0 24 12a11.89 11.89 0 0 0-3.48-8.52zM12 21.73a9.7 9.7 0 0 1-4.96-1.36l-.35-.21-3.73.96.99-3.63-.23-.37A9.71 9.71 0 0 1 2.27 12c0-5.37 4.36-9.73 9.73-9.73s9.73 4.36 9.73 9.73S17.37 21.73 12 21.73zm5.4-7.33c-.3-.15-1.78-.88-2.05-.98-.27-.1-.46-.15-.66.15-.2.3-.75.98-.92 1.18-.17.2-.34.22-.63.07-.3-.15-1.26-.46-2.4-1.48-.89-.8-1.49-1.77-1.66-2.07-.17-.3-.02-.46.13-.6.13-.13.3-.34.45-.51.15-.17.2-.3.3-.5.1-.2.05-.38-.03-.53-.07-.15-.66-1.6-.9-2.18-.24-.58-.48-.5-.66-.5-.17 0-.37 0-.57 0-.2 0-.53.08-.8.38-.27.3-1.04 1.02-1.04 2.5 0 1.48 1.07 2.9 1.22 3.1.15.2 2.12 3.22 5.14 4.51.72.31 1.28.5 1.72.63.72.23 1.38.2 1.9.12.58-.09 1.78-.73 2.04-1.44.25-.72.25-1.35.17-1.44-.07-.09-.27-.15-.57-.3z"/>
</svg>